<svg xmlns="http://www.w3.org/2000/svg" width="900" height="700" viewBox="0 0 900 700" role="img" aria-labelledby="title desc">
  <title id="title">Spin-on oil filter</title>
  <desc id="desc">Stylized black and orange automotive spin-on oil filter.</desc>
  <rect width="900" height="700" fill="#eef2f7"/>
  <rect x="190" y="104" width="520" height="492" rx="36" fill="#f8fafc"/>
  <ellipse cx="450" cy="176" rx="210" ry="68" fill="#111827"/>
  <path d="M240 176h420v300c0 78-94 142-210 142s-210-64-210-142V176Z" fill="#1f2937"/>
  <path d="M294 218h312v226c0 58-70 105-156 105s-156-47-156-105V218Z" fill="#f97316"/>
  <ellipse cx="450" cy="218" rx="156" ry="50" fill="#fb923c"/>
  <ellipse cx="450" cy="176" rx="166" ry="50" fill="#0f172a"/>
  <ellipse cx="450" cy="170" rx="96" ry="27" fill="#475569"/>
  <ellipse cx="450" cy="170" rx="42" ry="12" fill="#cbd5e1"/>
  <path d="M328 296h244" stroke="#111827" stroke-width="26" stroke-linecap="round"/>
  <path d="M328 360h244" stroke="#111827" stroke-width="26" stroke-linecap="round"/>
  <path d="M328 424h188" stroke="#111827" stroke-width="26" stroke-linecap="round"/>
  <text x="450" y="520" text-anchor="middle" font-family="Arial, sans-serif" font-size="54" font-weight="800" fill="#fff">XG</text>
</svg>
